<svg width="402" height="247" viewBox="0 0 402 247" fill="none" xmlns="http://www.w3.org/2000/svg">
<path d="M194.5 0C225.689 8.53267e-07 256.573 5.3282 285.388 15.6807C314.202 26.0331 340.384 41.2072 362.438 60.3359C368.885 65.9285 374.943 71.8278 380.586 78H405V110.607C408.249 116.001 411.227 121.526 413.921 127.167C425.856 152.16 432 178.948 432 206H405V247H-4V206H-43C-43 178.948 -36.8574 152.16 -24.9219 127.167C-19.1923 115.169 -12.181 103.698 -4 92.8965V78H8.41406C14.0573 71.8278 20.1148 65.9285 26.5625 60.3359C48.6163 41.2072 74.7977 26.0331 103.612 15.6807C132.427 5.32819 163.311 8.84716e-07 194.5 0Z" fill="#EB5914"/>
</svg>
