<svg width="175" height="204" viewBox="0 0 175 204" fill="none" xmlns="http://www.w3.org/2000/svg">
<path d="M51.2377 204V25.5883C51.2377 11.4509 39.757 0 25.619 0C11.4647 0 0 11.4673 0 25.5883V152.807C0 181.082 22.9454 204 51.2541 204H51.2377Z" fill="#EC5914"/>
<path d="M51.2383 204C79.5469 204 102.492 181.082 102.492 152.807V25.5883C102.492 11.4509 91.0117 0 76.8737 0C62.7194 0 51.2547 11.4673 51.2547 25.5883V204H51.2383Z" fill="#EC5914"/>
<path d="M153.745 204V25.5883C153.745 11.4509 142.265 0 128.127 0C113.973 0 102.508 11.4673 102.508 25.5883V152.807C102.508 181.082 125.453 204 153.762 204H153.745Z" fill="#EC5914"/>
<path d="M153.746 204C182.055 204 205 181.082 205 152.807V25.5883C205 11.4509 193.519 0 179.382 0C165.227 0 153.763 11.4673 153.763 25.5883V204H153.746Z" fill="#EC5914"/>
</svg>
