<svg width="24" height="25" viewBox="0 0 24 25" fill="none" xmlns="http://www.w3.org/2000/svg">
<path d="M19.0621 21.0973C17.1077 23.0516 12.1028 21.2153 7.88327 16.9958C3.66372 12.7762 1.82739 7.7713 3.7817 5.81698L5.06847 4.53021C5.9568 3.64188 7.42054 3.66537 8.33784 4.58266L10.3309 6.57575C11.2482 7.49304 11.2717 8.95679 10.3834 9.84511L10.107 10.1215C9.62737 10.6011 9.58045 11.3748 10.0261 11.9149C10.456 12.4358 10.9194 12.9547 11.4219 13.4572C11.9244 13.9596 12.4432 14.4231 12.9641 14.8529C13.5042 15.2986 14.2779 15.2517 14.7575 14.772L15.0339 14.4957C15.9222 13.6073 17.386 13.6308 18.3033 14.5481L20.2964 16.5412C21.2137 17.4585 21.2371 18.9222 20.3488 19.8106L19.0621 21.0973Z" stroke="#301C1B" stroke-width="1.5"/>
</svg>
